<svg xmlns="http://www.w3.org/2000/svg" xmlns:xlink="http://www.w3.org/1999/xlink" viewBox="0 0 274 80"><defs><path id="a" d="M58.091 35.325v4.429h9.637L57.476 54.722v1.312h18.618v-4.47H64.981l10.703-14.969v-1.271H58.091zm104.858 0v4.429h9.637l-10.251 14.968v1.312h18.618v-4.47h-11.114l10.702-14.969v-1.271h-17.592zm24.195 0v4.429h3.322v16.28h5.208V35.325h-8.53zm63.973 0v4.429h3.321v16.28h5.208V35.325h-8.529zM87.535 45.823c0-3.117 2.05-5.946 5.29-5.946 2.011 0 3.732 1.025 5.208 2.584v2.953c.042 3.731-2.583 6.027-5.332 6.027-3.116 0-5.166-2.502-5.166-5.618m-5.413 0c0 6.89 4.305 10.827 9.269 10.827 3.075 0 5.413-1.888 6.643-4.101v3.486h5.208v-20.71h-5.208v2.336c-1.558-1.721-4.019-2.87-6.275-2.87-5.332.001-9.637 4.102-9.637 11.032m29.185-4.469c0 2.625 1.024 4.552 4.183 5.618l2.542.903c1.806.614 2.749 1.065 2.749 2.131 0 1.354-1.148 2.133-3.241 2.133-2.009 0-4.798-1.067-6.355-2.133v4.553c1.394 1.026 4.264 2.092 7.054 2.092 4.429 0 8.037-2.829 8.037-6.645 0-2.665-1.517-4.51-4.716-5.453l-2.338-.78c-1.844-.574-2.378-1.271-2.378-2.173 0-1.23 1.23-2.215 3.199-2.215 2.05 0 4.06 1.026 5.331 1.887v-4.593c-1.189-1.025-3.527-1.886-6.11-1.886-4.676-.001-7.957 2.665-7.957 6.561m101.836-2.01c2.378 0 4.676 1.517 4.88 4.511H208.1c.614-2.748 2.418-4.511 5.043-4.511m-10.374 6.561c0 6.233 5.003 10.745 11.113 10.745 3.158 0 5.372-1.026 6.52-1.888v-4.715c-1.271.82-3.281 1.886-6.315 1.886-3.157 0-5.495-1.845-6.069-4.676h15.009v-2.171c0-6.029-3.65-10.293-9.76-10.293-6.07-.001-10.498 5.084-10.498 11.112m25.793-.122c0 5.822 4.634 10.867 10.868 10.867 3.076 0 4.962-1.108 6.111-2.092v-4.757c-1.435 1.027-3.118 1.804-5.66 1.804-3.363 0-5.783-2.459-5.783-5.822 0-3.364 2.625-5.865 5.783-5.865 2.542 0 4.225.821 5.66 1.845v-4.797c-1.148-.943-3.035-2.173-6.111-2.173-6.234-.001-10.868 5.166-10.868 10.99m-39.369-17.716c0 1.886 1.601 3.526 3.568 3.526 1.969 0 3.609-1.64 3.609-3.526 0-1.928-1.64-3.528-3.609-3.528-1.967 0-3.568 1.6-3.568 3.528m63.975 0c0 1.886 1.599 3.526 3.567 3.526s3.609-1.64 3.609-3.526c0-1.928-1.641-3.528-3.609-3.528s-3.567 1.6-3.567 3.528"></path></defs><clipPath id="b"><use xlink:href="#a" overflow="visible"></use></clipPath><linearGradient id="c" gradientUnits="userSpaceOnUse" x1="-685.879" y1="3282.119" x2="-685.156" y2="3282.119" gradientTransform="scale(-78.3563 78.3563) rotate(-83 -2198.36 1255.046)"><stop offset="0" stop-color="#f15b4e"></stop><stop offset=".005" stop-color="#f15b4e"></stop><stop offset=".439" stop-color="#f06a61"></stop><stop offset="1" stop-color="#f07c78"></stop></linearGradient><path clip-path="url(#b)" fill="url(#c)" d="M60.489 81.189l-6.898-56.173L257.332 0l6.897 56.173z"></path><defs><path id="d" d="M139.241 51.088V35.581h3.736c4.905 0 8.828 2.717 8.828 7.773 0 4.714-2.679 8.148-7.885 8.148-1.434 0-3.17-.112-4.679-.414m-5.245-20.411v24.75c3.057.603 6.603 1.019 10.075 1.019 8.147 0 13.092-5.811 13.092-13.281 0-8.149-6.641-12.487-13.998-12.487h-9.169z"></path></defs><clipPath id="e"><use xlink:href="#d" overflow="visible"></use></clipPath><linearGradient id="f" gradientUnits="userSpaceOnUse" x1="-715.721" y1="3288.074" x2="-714.999" y2="3288.074" gradientTransform="scale(-39.2841 39.2841) rotate(-83 -2217.152 1242.401)"><stop offset="0" stop-color="#f15b4e"></stop><stop offset=".005" stop-color="#f15b4e"></stop><stop offset=".439" stop-color="#f06a61"></stop><stop offset="1" stop-color="#f07c78"></stop></linearGradient><path clip-path="url(#e)" fill="url(#f)" d="M134.34 59.248l-3.461-28.188 25.939-3.185 3.461 28.188z"></path><g><defs><path id="g" d="M24.504 40.495c0 9.321 7.154 17.196 17.129 17.196 4.792 0 8.531-1.904 9.845-3.216v-5.449c-2.494 1.839-5.447 3.414-9.845 3.414-7.023 0-11.551-5.578-11.551-11.945 0-6.366 4.528-12.011 11.551-12.011 4.398 0 7.352 1.576 9.845 3.414V26.45c-1.314-1.246-5.054-3.214-9.845-3.214-9.975-.001-17.129 7.940-17.129 17.259"></path></defs><clipPath id="h"><use xlink:href="#g" overflow="visible"></use></clipPath><linearGradient id="i" gradientUnits="userSpaceOnUse" x1="-701.326" y1="3284.357" x2="-700.604" y2="3284.357" gradientTransform="scale(-51.8593 51.8593) rotate(-83 -2206.553 1246.837)"><stop offset="0" stop-color="#f15b4e"></stop><stop offset=".005" stop-color="#f15b4e"></stop><stop offset=".178" stop-color="#f06257"></stop><stop offset=".483" stop-color="#f07772"></stop><stop offset=".538" stop-color="#f07c78"></stop><stop offset="1" stop-color="#f3c292"></stop></linearGradient><path clip-path="url(#h)" fill="url(#i)" d="M24.905 60.954l-4.568-37.206 30.741-3.775 4.569 37.206z"></path></g><path fill="#F3C292" d="M39.369 7.282h5.075v10.336h-5.075z"></path><path fill="#F15B4E" d="M39.369 61.862h5.075v10.336h-5.075z"></path><path fill="#F07C78" d="M8.727 37.924h10.336V43H8.727z"></path><path fill="#F3C292" d="M27.546 22.515l-3.590 3.589-7.309-7.312 3.590-3.588z"></path><path fill="#F15B4E" d="M20.24 64.998l-3.591-3.590 7.308-7.310 3.590 3.590z"></path></svg>
